<svg width="725" height="721" viewBox="0 0 725 721" fill="none" xmlns="http://www.w3.org/2000/svg">
    <g filter="url(#filter0_di_1_679)">
        <path
            d="M269.968 572.322C263.506 572.806 259.735 573.56 253.374 572.322C246.464 570.978 243.06 568.464 236.78 565.283C229.389 561.539 225.227 559.294 218.677 554.22C212.2 549.202 209.905 544.86 203.592 539.637C196.08 533.422 190.533 531.716 182.975 525.557C175.116 519.154 171.288 514.865 164.37 507.455C159.05 501.756 155.488 498.942 151.296 492.369C146.802 485.326 144.31 480.966 142.747 472.758C141.425 465.814 142.139 461.699 142.747 454.656C143.682 443.833 145.425 437.833 148.781 427.502C151.855 418.043 154.363 412.953 158.726 404.096L158.838 403.868C162.606 396.22 165.278 392.224 169.398 384.76C174.707 375.141 178.153 369.992 182.975 360.12C188.034 349.764 190.216 343.65 194.541 332.967C199.508 320.695 201.754 313.604 206.609 301.287C211.196 289.651 213.881 283.171 218.677 271.619C223.503 259.998 225.992 253.384 231.249 241.951C236.935 229.583 239.71 222.372 246.837 210.774C252.657 201.302 255.937 195.855 263.431 187.643C269.994 180.452 274.343 177.017 282.036 171.049C288.621 165.941 292.418 163.146 299.636 158.981C306.254 155.162 310.043 153.011 317.236 150.433C324.275 147.909 329.282 145.962 336.594 144.398C344.015 142.812 346.383 143.044 353.943 142.387C359.474 141.907 365.698 141.837 372.549 142.387C380.498 143.026 385.044 143.554 392.663 145.907C401.391 148.603 405.89 151.364 413.783 155.964C422.539 161.068 427.224 164.433 434.902 171.049C444.059 178.94 448.423 184.277 456.022 193.678C464.548 204.225 468.487 210.812 475.633 222.34C483.783 235.488 487.325 243.461 494.741 257.036C502.45 271.148 507.297 278.792 514.352 293.242C521.22 307.307 523.874 315.742 530.443 329.949C536.488 343.023 540.005 350.299 546.534 363.137C551.87 373.63 555.473 379.2 560.614 389.788C566.606 402.129 570.606 408.876 574.694 421.971C577.576 431.202 578.643 436.568 580.225 446.107C581.744 455.264 583.715 460.511 582.74 469.741C581.923 477.467 580.792 481.957 577.208 488.85C572.716 497.487 567.505 500.577 560.614 507.455C553.031 515.024 548.122 518.572 539.997 525.557C531.437 532.918 526.458 536.832 517.872 544.163C510.566 550.4 506.899 554.42 499.267 560.254C490.483 566.968 486.045 572.123 475.633 575.842C464.314 579.886 456.902 579.71 444.959 578.357C435.872 577.326 431.03 575.145 422.331 572.322C410.433 568.463 404.625 563.91 392.663 560.254L392.612 560.238C382.255 557.073 376.305 555.255 365.509 554.22C357.103 553.414 352.269 553.199 343.887 554.22C334.619 555.348 329.766 557.811 320.756 560.254C310.316 563.084 304.642 565.353 294.105 567.797C284.762 569.963 279.531 571.607 269.968 572.322Z"
            fill="#080808" />
        <path
            d="M269.968 572.322C263.506 572.806 259.735 573.56 253.374 572.322C246.464 570.978 243.06 568.464 236.78 565.283C229.389 561.539 225.227 559.294 218.677 554.22C212.2 549.202 209.905 544.86 203.592 539.637C196.08 533.422 190.533 531.716 182.975 525.557C175.116 519.154 171.288 514.865 164.37 507.455C159.05 501.756 155.488 498.942 151.296 492.369C146.802 485.326 144.31 480.966 142.747 472.758C141.425 465.814 142.139 461.699 142.747 454.656C143.682 443.833 145.425 437.833 148.781 427.502C151.855 418.043 154.363 412.953 158.726 404.096L158.838 403.868C162.606 396.22 165.278 392.224 169.398 384.76C174.707 375.141 178.153 369.992 182.975 360.12C188.034 349.764 190.216 343.65 194.541 332.967C199.508 320.695 201.754 313.604 206.609 301.287C211.196 289.651 213.881 283.171 218.677 271.619C223.503 259.998 225.992 253.384 231.249 241.951C236.935 229.583 239.71 222.372 246.837 210.774C252.657 201.302 255.937 195.855 263.431 187.643C269.994 180.452 274.343 177.017 282.036 171.049C288.621 165.941 292.418 163.146 299.636 158.981C306.254 155.162 310.043 153.011 317.236 150.433C324.275 147.909 329.282 145.962 336.594 144.398C344.015 142.812 346.383 143.044 353.943 142.387C359.474 141.907 365.698 141.837 372.549 142.387C380.498 143.026 385.044 143.554 392.663 145.907C401.391 148.603 405.89 151.364 413.783 155.964C422.539 161.068 427.224 164.433 434.902 171.049C444.059 178.94 448.423 184.277 456.022 193.678C464.548 204.225 468.487 210.812 475.633 222.34C483.783 235.488 487.325 243.461 494.741 257.036C502.45 271.148 507.297 278.792 514.352 293.242C521.22 307.307 523.874 315.742 530.443 329.949C536.488 343.023 540.005 350.299 546.534 363.137C551.87 373.63 555.473 379.2 560.614 389.788C566.606 402.129 570.606 408.876 574.694 421.971C577.576 431.202 578.643 436.568 580.225 446.107C581.744 455.264 583.715 460.511 582.74 469.741C581.923 477.467 580.792 481.957 577.208 488.85C572.716 497.487 567.505 500.577 560.614 507.455C553.031 515.024 548.122 518.572 539.997 525.557C531.437 532.918 526.458 536.832 517.872 544.163C510.566 550.4 506.899 554.42 499.267 560.254C490.483 566.968 486.045 572.123 475.633 575.842C464.314 579.886 456.902 579.71 444.959 578.357C435.872 577.326 431.03 575.145 422.331 572.322C410.433 568.463 404.625 563.91 392.663 560.254L392.612 560.238C382.255 557.073 376.305 555.255 365.509 554.22C357.103 553.414 352.269 553.199 343.887 554.22C334.619 555.348 329.766 557.811 320.756 560.254C310.316 563.084 304.642 565.353 294.105 567.797C284.762 569.963 279.531 571.607 269.968 572.322Z"
            stroke="black" stroke-width="3" />
    </g>
    <ellipse cx="367.771" cy="243.197" rx="34.4451" ry="98.3068" fill="#191919" />
    <path
        d="M460.547 278.144C456.467 267.258 452.502 249.482 452.502 249.482C452.502 249.482 455.621 256.577 457.782 261.047C460.915 267.532 462.753 271.139 466.33 277.39C469.132 282.286 470.636 285.089 473.873 289.71C478.51 296.331 481.697 299.627 487.198 305.55C492.349 311.094 495.624 313.827 501.026 319.126C505.934 323.94 508.861 326.465 513.598 331.446C518.823 336.942 521.718 340.079 526.42 346.029C531.049 351.885 533.353 355.399 537.483 361.617C541.387 367.495 543.511 370.841 547.037 376.954C550.812 383.498 552.931 387.187 556.088 394.051C559.35 401.141 560.666 405.339 563.38 412.656C567.525 423.836 573.185 441.57 573.185 441.57C573.185 441.57 566.578 426.936 561.62 417.936C559.263 413.659 558.088 411.158 555.334 407.125C549.575 398.692 544.398 395.531 537.483 388.017C530.752 380.702 527.015 376.567 520.386 369.16C513.66 361.644 509.696 357.591 503.289 349.8L503.282 349.791C496.925 342.061 493.343 337.705 487.701 329.435C480.707 319.182 477.316 313.051 471.61 302.03C466.883 292.901 464.155 287.77 460.547 278.144Z"
        fill="#191919" />
    <path
        d="M269.212 270.099C270.837 261.584 272.984 248.225 272.984 248.225C272.984 248.225 267.926 264.029 263.932 273.87C260.529 282.258 257.937 286.666 254.378 294.99C251.088 302.685 250.128 307.393 246.333 314.852C242.392 322.598 239.962 326.937 234.516 333.709C229.947 339.39 226.518 341.802 221.442 347.035C215.011 353.665 210.937 356.974 205.099 364.132C199.934 370.465 197.307 374.264 193.031 381.228C188.619 388.415 186.542 392.696 182.974 400.337C179.602 407.556 177.844 411.684 175.18 419.193C172.542 426.63 171.535 430.958 169.397 438.553C166.294 449.579 162.106 466.964 162.106 466.964C162.106 466.964 168.931 452.22 173.42 442.827C176.336 436.725 177.717 433.172 180.963 427.239C184.454 420.857 186.701 417.432 190.768 411.399C194.501 405.862 196.463 402.626 200.825 397.571C206.043 391.524 209.974 389.101 215.659 383.491C220.552 378.663 223.323 375.977 227.979 370.92C233.829 364.566 237.609 361.321 242.31 354.075C246.373 347.812 247.879 343.822 250.858 336.978C254.156 329.402 255.664 324.995 258.15 317.115C260.837 308.598 261.865 303.678 263.932 294.99C266.232 285.323 267.35 279.86 269.212 270.099Z"
        fill="#191919" />
    <path
        d="M275.247 550.688C269.788 555.015 261.67 562.254 261.67 562.254C261.67 562.254 276.866 556.076 286.812 552.7C293.34 550.483 297.002 549.219 303.658 547.42C311.039 545.424 315.28 544.707 322.766 543.145C328.741 541.899 332.058 540.976 338.103 540.128C343.473 539.375 346.515 539.144 351.931 538.871C358.697 538.53 362.507 538.672 369.279 538.871C377.048 539.1 381.397 539.229 389.142 539.877C397.505 540.577 402.222 541.09 410.513 542.391C418.236 543.603 422.523 544.586 430.124 546.414C436.353 547.912 439.835 548.82 445.964 550.688C451.815 552.472 455.101 553.488 460.798 555.717C469.714 559.205 482.923 566.276 482.923 566.276C482.923 566.276 471.849 557.846 464.569 552.7C457.409 547.637 453.491 544.627 445.964 540.128C438.537 535.689 434.363 533.09 426.353 529.82C418.011 526.414 413.023 525.235 404.227 523.283C395.023 521.24 389.745 520.463 380.342 519.763C370.648 519.042 365.141 518.995 355.451 519.763C346.439 520.477 341.382 521.257 332.571 523.283C324.066 525.239 319.343 526.678 311.2 529.82C302.473 533.188 297.533 535.207 289.578 540.128C283.666 543.786 280.695 546.37 275.247 550.688Z"
        fill="#191919" />
    <path
        d="M279.018 455.901C271.522 448.867 259.909 437.799 259.909 437.799C259.909 437.799 260.833 417.303 262.926 404.359C264.239 396.242 265.253 391.731 267.201 383.743C269.401 374.714 270.176 369.446 273.738 360.863C276.903 353.234 278.166 348.302 283.795 342.258C287.128 338.677 289.259 336.718 293.6 334.463C297.873 332.244 300.635 331.504 305.417 330.943C312.203 330.148 316.083 331.783 322.765 333.206C329.995 334.746 333.734 336.8 340.868 338.738C349.234 341.01 353.859 342.951 362.49 343.766C368.551 344.339 372.029 344.442 378.079 343.766C385.842 342.899 389.918 340.85 397.438 338.738C404.645 336.713 408.48 334.812 415.792 333.206C421.232 332.011 424.306 330.755 429.872 330.943C434.472 331.099 437.16 331.509 441.438 333.206C447.753 335.713 450.783 338.66 455.266 343.766C460.28 349.479 461.803 353.783 464.569 360.863C467.722 368.938 467.848 373.994 469.597 382.485C471.668 392.541 472.824 398.198 474.123 408.382C475.717 420.88 476.385 440.564 476.385 440.564C476.385 440.564 469.375 448.264 464.569 452.884C458.749 458.479 455.32 461.464 448.98 466.461C439.933 473.592 434.546 477.256 424.592 483.055C415.486 488.361 410.392 491.612 400.455 495.123C390.505 498.64 384.595 500.348 374.056 500.906C365.001 501.386 359.784 500.825 350.925 498.895C342.064 496.964 337.284 494.902 329.051 491.101C321.145 487.451 317.05 484.693 309.691 480.038C301.887 475.102 297.419 472.381 290.332 466.461C285.693 462.587 283.425 460.037 279.018 455.901Z"
        fill="#060C00" />
    <path
        d="M279.018 455.901C271.522 448.867 259.909 437.799 259.909 437.799C259.909 437.799 260.833 417.303 262.926 404.359C264.239 396.242 265.253 391.731 267.201 383.743C269.401 374.714 270.176 369.446 273.738 360.863C276.903 353.234 278.166 348.302 283.795 342.258C287.128 338.677 289.259 336.718 293.6 334.463C297.873 332.244 300.635 331.504 305.417 330.943C312.203 330.148 316.083 331.783 322.765 333.206C329.995 334.746 333.734 336.8 340.868 338.738C349.234 341.01 353.859 342.951 362.49 343.766C368.551 344.339 372.029 344.442 378.079 343.766C385.842 342.899 389.918 340.85 397.438 338.738C404.645 336.713 408.48 334.812 415.792 333.206C421.232 332.011 424.306 330.755 429.872 330.943C434.472 331.099 437.16 331.509 441.438 333.206C447.753 335.713 450.783 338.66 455.266 343.766C460.28 349.479 461.803 353.783 464.569 360.863C467.722 368.938 467.848 373.994 469.597 382.485C471.668 392.541 472.824 398.198 474.123 408.382C475.717 420.88 476.385 440.564 476.385 440.564C476.385 440.564 469.375 448.264 464.569 452.884C458.749 458.479 455.32 461.464 448.98 466.461C448.98 466.461 438.894 470.215 432.386 472.495C423.889 475.473 419.199 477.415 410.512 479.786C398.456 483.077 391.55 484.924 379.084 485.821C366.535 486.724 359.344 486.184 346.902 484.312C335.292 482.565 328.928 480.57 317.737 477.021C306.804 473.554 290.332 466.461 290.332 466.461C285.693 462.587 283.425 460.037 279.018 455.901Z"
        fill="#192A00" />
    <path
        d="M464.57 360.863C467.723 368.938 467.85 373.994 469.598 382.485L473.621 404.359L454.261 425.479L430.879 441.57L399.451 455.147L358.217 459.673L319.247 446.096L279.019 418.439L262.928 404.359C264.24 396.242 265.254 391.731 267.202 383.743C269.403 374.714 270.177 369.446 273.739 360.863C273.739 360.863 276.072 354.256 279.019 351.057C281.749 348.093 283.848 346.828 287.567 345.275C291.085 343.805 293.309 343.223 297.121 343.263C302.617 343.321 305.528 345.336 310.447 347.789C315.687 350.402 318.061 352.851 322.766 356.337C327.596 359.916 329.942 362.399 334.835 365.891L334.89 365.931C339.422 369.166 342 371.006 346.903 373.686C351.182 376.024 353.52 377.659 358.217 378.965C363.253 380.367 366.33 380.603 371.543 380.223C377.744 379.77 381.181 378.436 386.88 375.948C392.127 373.657 394.669 371.554 399.451 368.406C405.143 364.658 407.905 361.943 413.531 358.097C418.635 354.608 421.012 351.568 426.856 349.549C431.818 347.835 434.944 347.449 440.182 347.789C445.243 348.118 449.705 348.074 454.261 350.303C456.317 351.309 461.416 352.787 464.57 360.863Z"
        fill="#345400" />
    <path
        d="M289.327 420.953C277.668 415.051 262.425 404.862 262.425 404.862C262.425 404.862 273.557 420.089 281.784 428.496C288.511 435.37 293.04 438.445 300.641 444.336C308.824 450.678 313.211 454.399 322.264 459.421C331.114 464.331 337.086 467.271 346.903 469.73C355.623 471.913 360.04 472.266 369.029 472.244C377.822 472.222 382.838 471.712 391.405 469.73C399.513 467.854 403.975 466.203 411.519 462.69C419.625 458.915 423.877 456.101 431.13 450.873C437.464 446.308 440.852 443.474 446.467 438.05C451.166 433.512 453.599 430.748 457.781 425.73C464.271 417.945 474.124 404.108 474.124 404.108C474.124 404.108 463.882 411.509 457.781 415.422C450.861 419.86 446.6 421.713 439.427 425.73C432.755 429.468 429.12 431.762 422.331 435.285C413.948 439.634 409.37 442.474 400.457 445.593C392.342 448.433 387.639 450.012 379.086 450.873C373.029 451.482 369.528 451.701 363.497 450.873C356.481 449.909 352.829 449.453 346.149 447.101C340.597 445.147 333.535 442.144 328.107 439.836L328.047 439.81C319.842 436.321 316.763 434.536 308.687 430.759C301.245 427.278 296.657 424.664 289.327 420.953Z"
        fill="#400000" stroke="black" stroke-width="2.979" />
    <path
        d="M343.634 467.467C341.544 466.869 338.857 465.958 338.857 465.958C338.857 465.958 344.103 463.832 347.908 463.193C351.309 462.621 353.018 462.459 356.456 462.187C359.106 461.977 360.84 462.04 363.496 461.936C366.538 461.815 368.498 461.684 371.542 461.684C373.997 461.684 375.126 461.79 377.576 461.936C379.449 462.047 380.991 462.234 382.856 462.438C385.411 462.718 386.349 462.808 388.89 463.193C393.46 463.885 400.456 465.958 400.456 465.958C400.456 465.958 394.126 468.114 389.896 468.975L389.837 468.988C386.961 469.573 385.287 469.914 382.353 470.233C378.535 470.647 378.146 470.854 374.308 470.987C371.167 471.095 367.64 471.14 364.502 470.987C361.448 470.837 359.993 470.871 356.959 470.484C354.397 470.157 352.708 469.713 350.171 469.227C347.598 468.733 346.153 468.188 343.634 467.467Z"
        fill="#7D0205" />
    <defs>
        <filter id="filter0_di_1_679" x="0.500488" y="0.5" width="723.997" height="720.223"
            filterUnits="userSpaceOnUse" color-interpolation-filters="sRGB">
            <feFlood flood-opacity="0" result="BackgroundImageFix" />
            <feColorMatrix in="SourceAlpha" type="matrix"
                values="0 0 0 0 0 0 0 0 0 0 0 0 0 0 0 0 0 0 127 0" result="hardAlpha" />
            <feOffset />
            <feGaussianBlur stdDeviation="70" />
            <feComposite in2="hardAlpha" operator="out" />
            <feColorMatrix type="matrix" values="0 0 0 0 0 0 0 0 0 0 0 0 0 0 0 0 0 0 0.45 0" />
            <feBlend mode="normal" in2="BackgroundImageFix" result="effect1_dropShadow_1_679" />
            <feBlend mode="normal" in="SourceGraphic" in2="effect1_dropShadow_1_679" result="shape" />
            <feColorMatrix in="SourceAlpha" type="matrix"
                values="0 0 0 0 0 0 0 0 0 0 0 0 0 0 0 0 0 0 127 0" result="hardAlpha" />
            <feOffset dx="15" dy="5" />
            <feGaussianBlur stdDeviation="7.5" />
            <feComposite in2="hardAlpha" operator="arithmetic" k2="-1" k3="1" />
            <feColorMatrix type="matrix"
                values="0 0 0 0 0.359604 0 0 0 0 0.835439 0 0 0 0 0.518215 0 0 0 0.4 0" />
            <feBlend mode="normal" in2="shape" result="effect2_innerShadow_1_679" />
        </filter>
    </defs>
</svg>
    