<svg width="50" height="50" viewBox="0 0 50 50" fill="none" xmlns="http://www.w3.org/2000/svg">
    <circle cx="25" cy="25" r="25" fill="#0c8a42" style="mix-blend-mode:soft-light" />
    <path
        d="M16.3169 44.0557C15.7454 44.0985 15.4119 44.1652 14.8494 44.0557C14.2383 43.9368 13.9372 43.7145 13.3819 43.4331C12.7283 43.102 12.3602 42.9035 11.781 42.4548C11.2081 42.011 11.0052 41.6271 10.4469 41.1652C9.78256 40.6156 9.29205 40.4647 8.62365 39.92C7.92866 39.3537 7.59006 38.9745 6.97827 38.3191C6.50781 37.8152 6.19286 37.5663 5.82206 36.9851C5.42469 36.3622 5.20428 35.9765 5.06608 35.2507C4.94913 34.6366 5.01231 34.2727 5.06608 33.6498C5.14871 32.6927 5.30285 32.1621 5.59972 31.2485C5.87151 30.412 6.0933 29.9618 6.47918 29.1786L6.48911 29.1584C6.82232 28.482 7.05863 28.1287 7.42297 27.4686C7.89245 26.6179 8.19724 26.1626 8.62365 25.2896C9.071 24.3737 9.26396 23.833 9.64645 22.8882C10.0858 21.803 10.2844 21.1758 10.7137 20.0866C11.1194 19.0575 11.3568 18.4845 11.781 17.4629C12.2077 16.4352 12.4278 15.8503 12.8927 14.8392C13.3956 13.7455 13.641 13.1077 14.2713 12.0821C14.786 11.2444 15.0761 10.7627 15.7388 10.0365C16.3192 9.40051 16.7038 9.09672 17.3842 8.569C17.9665 8.11727 18.3022 7.87009 18.9406 7.50173C19.5259 7.16399 19.8609 6.97378 20.497 6.74574C21.1195 6.52258 21.5623 6.35035 22.209 6.21211C22.8652 6.07183 23.0747 6.0923 23.7432 6.03423C24.2324 5.99175 24.7828 5.98555 25.3887 6.03423C26.0916 6.09071 26.4937 6.1374 27.1675 6.34552C27.9393 6.58393 28.3372 6.82807 29.0352 7.23491C29.8096 7.68631 30.2239 7.98387 30.9029 8.569C31.7127 9.26682 32.0986 9.7388 32.7706 10.5701C33.5247 11.5029 33.873 12.0854 34.5049 13.1049C35.2257 14.2676 35.539 14.9728 36.1948 16.1733C36.8765 17.4213 37.3052 18.0973 37.9291 19.3751C38.5364 20.619 38.7712 21.365 39.3521 22.6214C39.8867 23.7776 40.1977 24.421 40.7752 25.5564C41.247 26.4842 41.5656 26.9768 42.0203 27.9133C42.5502 29.0046 42.9039 29.6013 43.2654 30.7593C43.5203 31.5757 43.6146 32.0502 43.7546 32.8939C43.889 33.7036 44.0632 34.1676 43.977 34.9839C43.9047 35.6671 43.8048 36.0642 43.4878 36.6738C43.0906 37.4377 42.6297 37.7109 42.0203 38.3191C41.3496 38.9885 40.9155 39.3023 40.197 39.92C39.44 40.5709 38.9997 40.9172 38.2404 41.5654C37.5943 42.117 37.27 42.4725 36.595 42.9884C35.8182 43.5822 35.4257 44.0381 34.5049 44.367C33.504 44.7246 32.8484 44.7091 31.7923 44.5894C30.9886 44.4983 30.5605 44.3053 29.7912 44.0557C28.739 43.7144 28.2253 43.3117 27.1675 42.9884L27.1629 42.9871C26.247 42.7072 25.7208 42.5463 24.7661 42.4548C24.0228 42.3835 23.5952 42.3646 22.8539 42.4548C22.0344 42.5546 21.6051 42.7724 20.8083 42.9884C19.8851 43.2387 19.3833 43.4394 18.4514 43.6555C17.6252 43.8471 17.1626 43.9924 16.3169 44.0557Z"
        fill="black" />
    <ellipse cx="24.9666" cy="14.7724" rx="3.04617" ry="8.6938" fill="#0C0C0C" />
    <path
        d="M33.1707 17.8631C32.8099 16.9004 32.4592 15.3284 32.4592 15.3284C32.4592 15.3284 32.7351 15.9558 32.9262 16.3512C33.2033 16.9247 33.3658 17.2436 33.6821 17.7964C33.9299 18.2294 34.063 18.4773 34.3492 18.8859C34.7593 19.4715 35.0411 19.763 35.5276 20.2867C35.9831 20.7771 36.2727 21.0187 36.7505 21.4874C37.1845 21.9131 37.4434 22.1364 37.8623 22.5769C38.3244 23.0629 38.5804 23.3404 38.9963 23.8665C39.4056 24.3845 39.6093 24.6952 39.9746 25.2451C40.3199 25.7649 40.5077 26.0608 40.8195 26.6014C41.1533 27.1801 41.3408 27.5064 41.62 28.1134C41.9084 28.7404 42.0248 29.1117 42.2648 29.7587C42.6314 30.7474 43.1319 32.3157 43.1319 32.3157C43.1319 32.3157 42.5476 31.0216 42.1091 30.2257C41.9007 29.8474 41.7968 29.6262 41.5533 29.2696C41.0439 28.5238 40.5861 28.2443 39.9746 27.5797C39.3794 26.9329 39.0488 26.5672 38.4626 25.9121C37.8678 25.2474 37.5172 24.889 36.9507 24.2001L36.95 24.1992C36.3878 23.5156 36.071 23.1304 35.5721 22.399C34.9536 21.4923 34.6537 20.9501 34.1491 19.9754C33.7311 19.1681 33.4898 18.7144 33.1707 17.8631Z"
        fill="#0C0C0C" />
    <path
        d="M16.2502 17.1515C16.3939 16.3985 16.5837 15.217 16.5837 15.217C16.5837 15.217 16.1364 16.6147 15.7832 17.485C15.4822 18.2268 15.253 18.6166 14.9383 19.3527C14.6473 20.0332 14.5624 20.4496 14.2268 21.1093C13.8783 21.7942 13.6634 22.178 13.1818 22.7769C12.7777 23.2793 12.4744 23.4925 12.0255 23.9553C11.4569 24.5416 11.0966 24.8343 10.5803 25.4673C10.1235 26.0273 9.89115 26.3633 9.51302 26.9792C9.12285 27.6148 8.93918 27.9934 8.62362 28.6691C8.32545 29.3076 8.16992 29.6726 7.93435 30.3367C7.70108 30.9944 7.61199 31.3771 7.42295 32.0488C7.14851 33.0239 6.77814 34.5613 6.77814 34.5613C6.77814 34.5613 7.38174 33.2574 7.7787 32.4268C8.03658 31.8871 8.1587 31.5729 8.44575 31.0482C8.75453 30.4838 8.95327 30.1809 9.3129 29.6474C9.64299 29.1578 9.8165 28.8716 10.2023 28.4245C10.6638 27.8897 11.0114 27.6755 11.5141 27.1794C11.9468 26.7524 12.1919 26.5148 12.6037 26.0676C13.121 25.5057 13.4553 25.2187 13.871 24.5779C14.2303 24.0241 14.3635 23.6712 14.627 23.0659C14.9187 22.3959 15.052 22.0062 15.2718 21.3094C15.5094 20.5562 15.6004 20.1211 15.7832 19.3527C15.9866 18.4978 16.0854 18.0147 16.2502 17.1515Z"
        fill="#0C0C0C" />
    <path
        d="M16.7837 41.9656C16.301 42.3482 15.583 42.9884 15.583 42.9884C15.583 42.9884 16.9269 42.442 17.8065 42.1434C18.3838 41.9474 18.7077 41.8356 19.2962 41.6765C19.949 41.5 20.3241 41.4366 20.9861 41.2985C21.5145 41.1883 21.8078 41.1067 22.3424 41.0317C22.8173 40.9651 23.0864 40.9447 23.5653 40.9205C24.1637 40.8904 24.5006 40.9029 25.0995 40.9205C25.7865 40.9408 26.1711 40.9521 26.856 41.0095C27.5957 41.0714 28.0128 41.1168 28.746 41.2318C29.429 41.339 29.8081 41.4259 30.4803 41.5876C31.0312 41.72 31.3391 41.8003 31.8811 41.9656C32.3985 42.1233 32.6892 42.2131 33.193 42.4103C33.9814 42.7188 35.1496 43.3441 35.1496 43.3441C35.1496 43.3441 34.1703 42.5986 33.5265 42.1434C32.8933 41.6958 32.5468 41.4295 31.8811 41.0317C31.2243 40.6391 30.8552 40.4093 30.1468 40.1201C29.4091 39.8189 28.968 39.7146 28.1901 39.542C27.3761 39.3613 26.9093 39.2926 26.0778 39.2307C25.2206 39.1669 24.7335 39.1628 23.8766 39.2307C23.0796 39.2939 22.6324 39.3628 21.8532 39.542C21.101 39.7149 20.6833 39.8422 19.9633 40.1201C19.1915 40.4179 18.7546 40.5965 18.0511 41.0317C17.5282 41.3551 17.2655 41.5837 16.7837 41.9656Z"
        fill="#0C0C0C" />
    <path
        d="M17.1173 33.5831C16.4545 32.961 15.4275 31.9822 15.4275 31.9822C15.4275 31.9822 15.5092 30.1696 15.6943 29.0249C15.8104 28.3071 15.9001 27.9082 16.0723 27.2017C16.2669 26.4033 16.3354 25.9374 16.6504 25.1783C16.9304 24.5037 17.0421 24.0675 17.5398 23.5329C17.8346 23.2163 18.023 23.0431 18.407 22.8437C18.7849 22.6474 19.0291 22.582 19.452 22.5324C20.0521 22.462 20.3952 22.6066 20.9862 22.7325C21.6256 22.8687 21.9562 23.0503 22.5871 23.2217C23.327 23.4226 23.736 23.5943 24.4993 23.6664C25.0353 23.717 25.3428 23.7261 25.8778 23.6664C26.5644 23.5897 26.9249 23.4085 27.5899 23.2217C28.2273 23.0426 28.5664 22.8745 29.2131 22.7325C29.6941 22.6268 29.966 22.5157 30.4582 22.5324C30.865 22.5462 31.1027 22.5824 31.481 22.7325C32.0395 22.9541 32.3075 23.2148 32.7039 23.6664C33.1474 24.1715 33.2821 24.5522 33.5266 25.1783C33.8055 25.8925 33.8167 26.3396 33.9713 27.0905C34.1544 27.9798 34.2567 28.4801 34.3715 29.3807C34.5125 30.4859 34.5716 32.2268 34.5716 32.2268C34.5716 32.2268 33.9516 32.9077 33.5266 33.3163C33.0119 33.811 32.7088 34.075 32.1481 34.5169C31.3479 35.1476 30.8715 35.4716 29.9913 35.9844C29.186 36.4536 28.7354 36.7411 27.8567 37.0517C26.9767 37.3627 26.4541 37.5137 25.5221 37.5631C24.7213 37.6055 24.26 37.5559 23.4765 37.3852C22.6929 37.2145 22.2702 37.0321 21.5421 36.6959C20.8429 36.3732 20.4808 36.1293 19.83 35.7176C19.1398 35.2811 18.7447 35.0404 18.1179 34.5169C17.7077 34.1743 17.5071 33.9488 17.1173 33.5831Z"
        fill="#060C00" />
    <path
        d="M17.1173 33.5831C16.4545 32.961 15.4275 31.9822 15.4275 31.9822C15.4275 31.9822 15.5092 30.1696 15.6943 29.0249C15.8104 28.3071 15.9001 27.9082 16.0723 27.2017C16.2669 26.4033 16.3354 25.9374 16.6504 25.1783C16.9304 24.5037 17.0421 24.0675 17.5398 23.5329C17.8346 23.2163 18.023 23.0431 18.407 22.8437C18.7849 22.6474 19.0291 22.582 19.452 22.5324C20.0521 22.462 20.3952 22.6066 20.9862 22.7325C21.6256 22.8687 21.9562 23.0503 22.5871 23.2217C23.327 23.4226 23.736 23.5943 24.4993 23.6664C25.0353 23.717 25.3428 23.7261 25.8778 23.6664C26.5644 23.5897 26.9249 23.4085 27.5899 23.2217C28.2273 23.0426 28.5664 22.8745 29.2131 22.7325C29.6941 22.6268 29.966 22.5157 30.4582 22.5324C30.865 22.5462 31.1027 22.5824 31.481 22.7325C32.0395 22.9541 32.3075 23.2148 32.7039 23.6664C33.1474 24.1715 33.2821 24.5522 33.5266 25.1783C33.8055 25.8925 33.8167 26.3396 33.9713 27.0905C34.1544 27.9798 34.2567 28.4801 34.3715 29.3807C34.5125 30.4859 34.5716 32.2267 34.5716 32.2267C34.5716 32.2267 33.9516 32.9077 33.5266 33.3163C33.0119 33.811 32.7088 34.075 32.1481 34.5169C32.1481 34.5169 31.256 34.8489 30.6806 35.0506C29.9291 35.3139 29.5143 35.4857 28.7461 35.6954C27.6799 35.9864 27.0692 36.1497 25.9668 36.229C24.857 36.3089 24.221 36.2612 23.1207 36.0956C22.094 35.9411 21.5312 35.7646 20.5415 35.4508C19.5746 35.1442 18.1179 34.5169 18.1179 34.5169C17.7077 34.1743 17.5071 33.9488 17.1173 33.5831Z"
        fill="#012204" />
    <path
        d="M33.5267 25.1783C33.8056 25.8925 33.8168 26.3396 33.9714 27.0905L34.3272 29.0249L32.6151 30.8927L30.5472 32.3157L27.7679 33.5164L24.1214 33.9166L20.675 32.7159L17.1174 30.2701L15.6944 29.0249C15.8105 28.3071 15.9002 27.9082 16.0724 27.2017C16.267 26.4033 16.3355 25.9373 16.6505 25.1783C16.6505 25.1783 16.8568 24.5941 17.1174 24.3112C17.3589 24.049 17.5445 23.9371 17.8734 23.7998C18.1845 23.6698 18.3812 23.6183 18.7183 23.6219C19.2043 23.627 19.4618 23.8052 19.8968 24.0221C20.3602 24.2532 20.5702 24.4698 20.9863 24.7781C21.4134 25.0946 21.6209 25.3142 22.0535 25.623L22.0584 25.6265C22.4592 25.9126 22.6872 26.0753 23.1208 26.3123C23.4992 26.5191 23.706 26.6636 24.1214 26.7792C24.5667 26.9031 24.8388 26.924 25.2998 26.8904C25.8482 26.8504 26.1522 26.7324 26.6561 26.5124C27.1202 26.3098 27.345 26.1238 27.7679 25.8454C28.2713 25.514 28.5155 25.2739 29.013 24.9337C29.4644 24.6251 29.6747 24.3563 30.1915 24.1777C30.6302 24.0262 30.9067 23.992 31.3699 24.0221C31.8176 24.0512 32.2121 24.0473 32.6151 24.2445C32.7969 24.3334 33.2478 24.4642 33.5267 25.1783Z"
        fill="#165400" />
    <path
        d="M18.0293 30.4925C16.9982 29.9706 15.6501 29.0695 15.6501 29.0695C15.6501 29.0695 16.6346 30.4161 17.3622 31.1596C17.9571 31.7674 18.3576 32.0394 19.0298 32.5604C19.7535 33.1212 20.1414 33.4503 20.942 33.8945C21.7247 34.3287 22.2528 34.5887 23.121 34.8061C23.8922 34.9992 24.2828 35.0304 25.0777 35.0284C25.8554 35.0265 26.2989 34.9814 27.0566 34.8061C27.7736 34.6402 28.1682 34.4942 28.8354 34.1835C29.5522 33.8497 29.9282 33.6009 30.5697 33.1385C31.1298 32.7348 31.4294 32.4841 31.926 32.0045C32.3415 31.6032 32.5567 31.3588 32.9266 30.915C33.5005 30.2265 34.3718 29.0028 34.3718 29.0028C34.3718 29.0028 33.4661 29.6574 32.9266 30.0034C32.3146 30.3958 31.9377 30.5597 31.3034 30.915C30.7133 31.2456 30.3919 31.4484 29.7915 31.7599C29.0502 32.1445 28.6453 32.3957 27.857 32.6715C27.1395 32.9227 26.7235 33.0623 25.9671 33.1385C25.4314 33.1924 25.1219 33.2117 24.5885 33.1385C23.9681 33.0533 23.6451 33.0129 23.0543 32.805C22.5633 32.6321 21.9388 32.3665 21.4587 32.1624L21.4534 32.1601C20.7279 31.8516 20.4555 31.6937 19.7413 31.3597C19.0832 31.0519 18.6775 30.8207 18.0293 30.4925Z"
        fill="#400000" stroke="black" stroke-width="2.979" />
    <path
        d="M22.8316 34.606C22.6468 34.5531 22.4092 34.4726 22.4092 34.4726C22.4092 34.4726 22.8732 34.2846 23.2096 34.228C23.5104 34.1774 23.6615 34.1631 23.9656 34.1391C24.2 34.1205 24.3533 34.1261 24.5882 34.1168C24.8572 34.1062 25.0305 34.0946 25.2997 34.0946C25.5168 34.0946 25.6166 34.1039 25.8333 34.1168C25.9989 34.1267 26.1354 34.1432 26.3003 34.1613C26.5262 34.1861 26.6092 34.194 26.8339 34.228C27.2381 34.2892 27.8567 34.4726 27.8567 34.4726C27.8567 34.4726 27.2969 34.6632 26.9228 34.7394L26.9176 34.7405C26.6633 34.7923 26.5153 34.8224 26.2558 34.8506C25.9181 34.8873 25.8837 34.9056 25.5443 34.9173C25.2666 34.9269 24.9547 34.9309 24.6771 34.9173C24.407 34.9041 24.2783 34.9071 24.0101 34.8728C23.7835 34.8439 23.6341 34.8047 23.4097 34.7616C23.1822 34.718 23.0544 34.6697 22.8316 34.606Z"
        fill="#7D0205" />
</svg>