<svg xmlns="http://www.w3.org/2000/svg"  viewBox="0 0 32 32" width="32px" height="32px"><path d="M 9.7050781 3.9960938 C 9.0794592 3.9937961 8.4373379 4.1266799 7.8125 4.46875 C 6.1630257 5.3705872 5.1801334 6.8288791 5.0234375 8.3789062 C 4.930477 9.2984669 5.1230743 10.226041 5.5488281 11.082031 C 4.1095486 12.693951 3 14.299868 3 16 C 3 17.339986 3.7696357 18.489963 4.7734375 19.509766 C 5.2512353 19.995179 5.8011538 20.456462 6.390625 20.894531 L 6.3417969 20.951172 C 7.0577333 21.578488 8 23.411141 8 25 C 8 26.2491 8.6171364 27.292069 9.421875 27.982422 C 10.226614 28.672775 11.20354 29.089022 12.142578 29.376953 C 14.020654 29.952814 15.839844 30 15.839844 30 L 15.869141 30 L 15.900391 30 C 15.900391 30 17.78009 29.95167 19.71875 29.378906 C 20.68808 29.092526 21.692856 28.68068 22.523438 27.994141 C 23.354015 27.307601 24 26.260543 24 25 C 24 23.411141 24.942267 21.578488 25.658203 20.951172 L 25.609375 20.894531 C 26.198846 20.456462 26.748765 19.995179 27.226562 19.509766 C 28.230365 18.489963 29 17.339986 29 16 C 29 14.300255 27.890037 12.693984 26.451172 11.082031 C 26.876926 10.226041 27.069523 9.2984669 26.976562 8.3789062 C 26.819867 6.8288791 25.836974 5.3705872 24.1875 4.46875 C 23.354383 4.0126565 22.489718 3.9293635 21.675781 4.0410156 C 20.861845 4.1526677 20.098822 4.4597672 19.470703 4.7871094 C 19.311209 4.8702293 19.177982 4.9581062 19.03125 5.0449219 C 17.9398 4.4288121 16.977413 4 16 4 C 15.022587 4 14.0602 4.4288121 12.96875 5.0449219 C 12.822018 4.9581062 12.688791 4.8702293 12.529297 4.7871094 C 11.901178 4.4597672 11.138155 4.1526677 10.324219 4.0410156 C 10.120735 4.0131026 9.9136178 3.9968596 9.7050781 3.9960938 z M 16 6 C 16.150613 6 16.618806 6.1440652 17.210938 6.3964844 A 1.0001 1.0001 0 0 0 17.048828 7.3203125 C 17.048828 7.3203125 18.658341 11.863596 24.365234 12.980469 A 1.0001 1.0001 0 0 0 25.220703 12.748047 C 26.321178 14.112772 27 15.406909 27 16 C 27 16.507014 26.614323 17.280912 25.800781 18.107422 C 24.987239 18.933932 23.810169 19.781635 22.537109 20.519531 C 21.264049 21.257427 19.89323 21.890305 18.697266 22.330078 C 17.501301 22.769851 16.433071 23 16 23 C 15.566929 23 14.498699 22.769851 13.302734 22.330078 C 12.10677 21.890305 10.735951 21.257427 9.4628906 20.519531 C 8.1898307 19.781635 7.0127606 18.933932 6.1992188 18.107422 C 5.3856768 17.280912 5 16.507014 5 16 C 5 15.406909 5.6787783 14.112818 6.7792969 12.748047 A 1.0001 1.0001 0 0 0 7.6347656 12.980469 C 13.341659 11.863596 14.951172 7.3203125 14.951172 7.3203125 A 1.0001 1.0001 0 0 0 14.789062 6.3964844 C 15.381194 6.1440652 15.849387 6 16 6 z M 9.7558594 6.0039062 C 9.873828 6.0068552 9.993617 6.0185693 10.115234 6.0371094 C 10.601704 6.1112694 11.111509 6.3041391 11.603516 6.5605469 C 12.222451 6.8831035 12.383298 7.0635382 12.683594 7.3046875 C 12.362859 8.0645074 11.310753 9.8995554 7.8164062 10.8125 C 7.249315 10.080385 6.9406912 9.3019986 7.0136719 8.5800781 C 7.102226 7.7041054 7.5969586 6.864819 8.7714844 6.2226562 C 9.0672715 6.0607264 9.4019535 5.9950594 9.7558594 6.0039062 z M 22.244141 6.0039062 C 22.598046 5.9950594 22.932728 6.0607262 23.228516 6.2226562 C 24.403041 6.8648191 24.897774 7.7041054 24.986328 8.5800781 C 25.059308 9.3019986 24.750685 10.080385 24.183594 10.8125 C 20.689247 9.8995554 19.637141 8.0645074 19.316406 7.3046875 C 19.616702 7.0635382 19.777549 6.8831035 20.396484 6.5605469 C 20.888491 6.3041391 21.398296 6.1112698 21.884766 6.0371094 C 22.006383 6.0185694 22.126172 6.0068552 22.244141 6.0039062 z M 11 7 C 11 7 10.40526 6.9994168 9.6796875 7.1445312 C 8.9541151 7.2896458 8.0286709 7.5572664 7.2929688 8.2929688 L 8.7070312 9.7070312 C 8.9713291 9.4427335 9.5458854 9.2103542 10.070312 9.1054688 C 10.594741 9.0005831 11 9 11 9 L 11 7 z M 21 7 L 21 9 C 21 9 21.405259 9.0005832 21.929688 9.1054688 C 22.454114 9.2103542 23.028671 9.4427336 23.292969 9.7070312 L 24.707031 8.2929688 C 23.971329 7.5572664 23.045886 7.2896457 22.320312 7.1445312 C 21.594741 6.9994168 21 7 21 7 z M 7.5878906 14.763672 L 6.4121094 16.380859 C 6.4121094 16.380859 11.176568 20 16 20 C 20.823432 20 25.587891 16.380859 25.587891 16.380859 L 24.412109 14.763672 C 24.412109 14.763672 19.758568 18 16 18 C 12.241432 18 7.5878906 14.763672 7.5878906 14.763672 z M 9.7109375 22.925781 C 10.697951 23.431073 11.689347 23.86996 12.611328 24.208984 C 13.924957 24.692024 15.048571 25 16 25 C 16.951429 25 18.075043 24.692024 19.388672 24.208984 C 20.310653 23.86996 21.30205 23.431073 22.289062 22.925781 C 22.109289 23.587153 22 24.284363 22 25 C 22 25.632957 21.754341 26.03268 21.248047 26.451172 C 20.741753 26.869663 19.965514 27.220692 19.152344 27.460938 C 17.541407 27.936875 15.902557 27.993004 15.871094 27.994141 C 15.841514 27.993041 14.270985 27.937801 12.728516 27.464844 C 11.950054 27.226149 11.207996 26.877569 10.724609 26.462891 C 10.241223 26.048213 10 25.6444 10 25 C 10 24.284363 9.8907112 23.587153 9.7109375 22.925781 z"/></svg>